REM DIRINDEX 1\2,1\3,1\4,1\5
REM DIRNAME folder01,folder02,folder03,folder04,folder05
TITLE ""
FILE "149.mp3" MP3
  TRACK 01 AUDIO
    TITLE "0:"
    INDEX 01 00:00:00
  TRACK 02 AUDIO
    TITLE "2:cjc046_4108"
    INDEX 01 00:00:13
  TRACK 03 AUDIO
    TITLE "0:"
    INDEX 01 00:01:19
  TRACK 04 AUDIO
    TITLE "3:cjc046_4109"
    INDEX 01 00:01:34
  TRACK 05 AUDIO
    TITLE "0:"
    INDEX 01 00:03:39
  TRACK 06 AUDIO
    TITLE "4:cjc046_4110"
    INDEX 01 00:03:51
  TRACK 07 AUDIO
    TITLE "0:"
    INDEX 01 00:04:58
  TRACK 08 AUDIO
    TITLE "2:cjc046_4111"
    INDEX 01 00:05:65
  TRACK 09 AUDIO
    TITLE "0:"
    INDEX 01 00:06:71
  TRACK 10 AUDIO
    TITLE "3:cjc046_4112"
    INDEX 01 00:07:17
  TRACK 11 AUDIO
    TITLE "0:"
    INDEX 01 00:08:30
  TRACK 12 AUDIO
    TITLE "4:cjc046_4113"
    INDEX 01 00:08:40
  TRACK 13 AUDIO
    TITLE "0:"
    INDEX 01 00:09:47
  TRACK 14 AUDIO
    TITLE "2:cjc046_4114"
    INDEX 01 00:10:57
  TRACK 15 AUDIO
    TITLE "0:"
    INDEX 01 00:12:05
  TRACK 16 AUDIO
    TITLE "3:cjc046_4115"
    INDEX 01 00:12:28
  TRACK 17 AUDIO
    TITLE "0:"
    INDEX 01 00:13:47
  TRACK 18 AUDIO
    TITLE "4:cjc046_4116"
    INDEX 01 00:13:59
  TRACK 19 AUDIO
    TITLE "0:"
    INDEX 01 00:15:09
  TRACK 20 AUDIO
    TITLE "2:cjc046_4117"
    INDEX 01 00:16:16
  TRACK 21 AUDIO
    TITLE "0:"
    INDEX 01 00:17:35
  TRACK 22 AUDIO
    TITLE "3:cjc046_4118"
    INDEX 01 00:17:55
  TRACK 23 AUDIO
    TITLE "0:"
    INDEX 01 00:19:67
  TRACK 24 AUDIO
    TITLE "4:cjc046_4119"
    INDEX 01 00:20:10
  TRACK 25 AUDIO
    TITLE "0:"
    INDEX 01 00:21:27
  TRACK 26 AUDIO
    TITLE "2:cjc046_4120"
    INDEX 01 00:22:34
  TRACK 27 AUDIO
    TITLE "0:"
    INDEX 01 00:23:42
  TRACK 28 AUDIO
    TITLE "3:cjc046_4121"
    INDEX 01 00:23:63
  TRACK 29 AUDIO
    TITLE "0:"
    INDEX 01 00:25:52
  TRACK 30 AUDIO
    TITLE "4:cjc046_4122"
    INDEX 01 00:25:72
  TRACK 31 AUDIO
    TITLE "0:"
    INDEX 01 00:27:04
  TRACK 32 AUDIO
    TITLE "2:cjc046_4123"
    INDEX 01 00:28:13
  TRACK 33 AUDIO
    TITLE "0:"
    INDEX 01 00:29:21
  TRACK 34 AUDIO
    TITLE "3:cjc046_4124"
    INDEX 01 00:29:36
  TRACK 35 AUDIO
    TITLE "0:"
    INDEX 01 00:30:30
  TRACK 36 AUDIO
    TITLE "4:cjc046_4125"
    INDEX 01 00:30:46
  TRACK 37 AUDIO
    TITLE "0:"
    INDEX 01 00:31:53
  TRACK 38 AUDIO
    TITLE "2:cjc046_4126"
    INDEX 01 00:32:62
  TRACK 39 AUDIO
    TITLE "0:"
    INDEX 01 00:33:73
  TRACK 40 AUDIO
    TITLE "3:cjc046_4127"
    INDEX 01 00:34:16
  TRACK 41 AUDIO
    TITLE "0:"
    INDEX 01 00:35:19
  TRACK 42 AUDIO
    TITLE "4:cjc046_4128"
    INDEX 01 00:35:33
  TRACK 43 AUDIO
    TITLE "0:"
    INDEX 01 00:36:44
  TRACK 44 AUDIO
    TITLE "2:cjc046_4129"
    INDEX 01 00:37:52
  TRACK 45 AUDIO
    TITLE "0:"
    INDEX 01 00:38:59
  TRACK 46 AUDIO
    TITLE "3:cjc046_4130"
    INDEX 01 00:39:02
  TRACK 47 AUDIO
    TITLE "0:"
    INDEX 01 00:40:17
  TRACK 48 AUDIO
    TITLE "4:cjc046_4131"
    INDEX 01 00:40:34
  TRACK 49 AUDIO
    TITLE "0:"
    INDEX 01 00:41:38
  TRACK 50 AUDIO
    TITLE "2:cjc046_4132"
    INDEX 01 00:42:47
  TRACK 51 AUDIO
    TITLE "0:"
    INDEX 01 00:43:56
  TRACK 52 AUDIO
    TITLE "3:cjc046_4133"
    INDEX 01 00:44:01
  TRACK 53 AUDIO
    TITLE "0:"
    INDEX 01 00:45:26
  TRACK 54 AUDIO
    TITLE "4:cjc046_4134"
    INDEX 01 00:45:43
  TRACK 55 AUDIO
    TITLE "0:"
    INDEX 01 00:46:49
  TRACK 56 AUDIO
    TITLE "2:cjc046_4135"
    INDEX 01 00:47:58
  TRACK 57 AUDIO
    TITLE "0:"
    INDEX 01 00:48:65
  TRACK 58 AUDIO
    TITLE "3:cjc046_4136"
    INDEX 01 00:49:10
  TRACK 59 AUDIO
    TITLE "0:"
    INDEX 01 00:50:31
  TRACK 60 AUDIO
    TITLE "4:cjc046_4137"
    INDEX 01 00:50:46
  TRACK 61 AUDIO
    TITLE "0:"
    INDEX 01 00:51:54
  TRACK 62 AUDIO
    TITLE "2:cjc046_4138"
    INDEX 01 00:52:59
  TRACK 63 AUDIO
    TITLE "0:"
    INDEX 01 00:53:68
  TRACK 64 AUDIO
    TITLE "3:cjc046_4139"
    INDEX 01 00:54:17
  TRACK 65 AUDIO
    TITLE "0:"
    INDEX 01 00:55:24
  TRACK 66 AUDIO
    TITLE "4:cjc046_4140"
    INDEX 01 00:55:36
  TRACK 67 AUDIO
    TITLE "0:"
    INDEX 01 00:56:47
  TRACK 68 AUDIO
    TITLE "2:cjc046_4141"
    INDEX 01 00:57:50
  TRACK 69 AUDIO
    TITLE "0:"
    INDEX 01 00:58:71
  TRACK 70 AUDIO
    TITLE "3:cjc046_4142"
    INDEX 01 00:59:14
  TRACK 71 AUDIO
    TITLE "0:"
    INDEX 01 01:01:09
  TRACK 72 AUDIO
    TITLE "4:cjc046_4143"
    INDEX 01 01:01:11
  TRACK 73 AUDIO
    TITLE "0:"
    INDEX 01 01:02:30
  TRACK 74 AUDIO
    TITLE "2:cjc046_4144"
    INDEX 01 01:03:37
  TRACK 75 AUDIO
    TITLE "0:"
    INDEX 01 01:04:52
  TRACK 76 AUDIO
    TITLE "3:cjc046_4145"
    INDEX 01 01:04:70
  TRACK 77 AUDIO
    TITLE "0:"
    INDEX 01 01:06:14
  TRACK 78 AUDIO
    TITLE "4:cjc046_4146"
    INDEX 01 01:06:28
  TRACK 79 AUDIO
    TITLE "0:"
    INDEX 01 01:07:43
  TRACK 80 AUDIO
    TITLE "2:cjc046_4147"
    INDEX 01 01:08:52
  TRACK 81 AUDIO
    TITLE "0:"
    INDEX 01 01:09:63
  TRACK 82 AUDIO
    TITLE "3:cjc046_4148"
    INDEX 01 01:10:10
  TRACK 83 AUDIO
    TITLE "0:"
    INDEX 01 01:11:27
  TRACK 84 AUDIO
    TITLE "4:cjc046_4149"
    INDEX 01 01:11:43
  TRACK 85 AUDIO
    TITLE "0:"
    INDEX 01 01:12:54
  TRACK 86 AUDIO
    TITLE "2:cjc046_4150"
    INDEX 01 01:13:65
  TRACK 87 AUDIO
    TITLE "0:"
    INDEX 01 01:15:11
  TRACK 88 AUDIO
    TITLE "3:cjc046_4151"
    INDEX 01 01:15:27
  TRACK 89 AUDIO
    TITLE "0:"
    INDEX 01 01:16:38
  TRACK 90 AUDIO
    TITLE "4:cjc046_4152"
    INDEX 01 01:16:54
  TRACK 91 AUDIO
    TITLE "0:"
    INDEX 01 01:17:73
  TRACK 92 AUDIO
    TITLE "2:cjc046_4153"
    INDEX 01 01:19:05
  TRACK 93 AUDIO
    TITLE "0:"
    INDEX 01 01:20:22
  TRACK 94 AUDIO
    TITLE "3:cjc046_4154"
    INDEX 01 01:20:34
  TRACK 95 AUDIO
    TITLE "0:"
    INDEX 01 01:21:45
  TRACK 96 AUDIO
    TITLE "4:cjc046_4155"
    INDEX 01 01:21:63
  TRACK 97 AUDIO
    TITLE "0:"
    INDEX 01 01:23:05
